<?xml version="1.0" standalone="no"?>
<!DOCTYPE svg PUBLIC "-//W3C//DTD SVG 20010904//EN"
 "http://www.w3.org/TR/2001/REC-SVG-20010904/DTD/svg10.dtd">
<svg version="1.0" xmlns="http://www.w3.org/2000/svg"
 width="700.000000pt" height="700.000000pt" viewBox="0 0 700.000000 700.000000"
 preserveAspectRatio="xMidYMid meet">
<metadata>
Created by potrace 1.14, written by Peter Selinger 2001-2017
</metadata>
<g transform="translate(0.000000,700.000000) scale(0.100000,-0.100000)"
fill="#000000" stroke="none">
<path d="M2999 6055 c-26 -8 -69 -35 -97 -60 -73 -66 -88 -102 -118 -282 -4
-26 -1 -33 12 -33 22 0 1337 279 1343 285 2 3 -5 5 -16 5 -10 0 -213 20 -449
45 -516 55 -612 61 -675 40z"/>
<path d="M4489 5884 c24 -28 48 -69 60 -107 11 -34 205 -931 431 -1993 299
-1408 410 -1948 410 -1995 0 -111 -67 -213 -170 -258 -25 -10 -144 -40 -265
-66 -487 -103 -1691 -360 -2025 -432 -477 -104 -533 -104 -651 -6 -37 32 -34
24 27 -64 155 -219 393 -299 743 -247 104 15 1682 346 1834 385 l78 20 288
-31 c401 -42 433 -41 528 23 56 37 107 115 122 187 17 78 433 4058 433 4145 1
171 -81 274 -246 310 -58 12 -1563 175 -1620 175 -14 0 -8 -11 23 -46z"/>
<path d="M3020 5124 c-553 -118 -1017 -219 -1033 -225 -36 -15 -68 -61 -73
-107 -6 -48 138 -722 163 -765 26 -45 77 -69 133 -63 82 9 2043 427 2071 442
43 22 71 68 71 117 -1 59 -140 704 -163 748 -21 43 -71 69 -126 68 -21 -1
-490 -97 -1043 -215z"/>
<path d="M1534 4881 c-41 -10 -98 -46 -121 -75 -15 -20 -48 -30 -198 -62 -153
-33 -185 -43 -212 -67 -40 -35 -54 -82 -42 -138 13 -58 25 -77 62 -99 44 -27
88 -25 280 14 l166 33 12 -56 c6 -31 31 -150 55 -265 30 -139 41 -212 34 -216
-6 -4 -79 -21 -163 -39 -165 -36 -194 -51 -228 -111 -12 -21 -27 -36 -33 -34
-16 6 -242 -131 -239 -145 2 -6 -3 -8 -11 -5 -7 3 -19 -3 -27 -13 -13 -17 -13
-17 6 -4 11 7 7 2 -8 -13 -18 -16 -27 -33 -23 -42 3 -8 2 -12 -4 -9 -15 9 -12
-41 5 -82 8 -19 15 -36 15 -37 0 0 -31 -2 -70 -3 -38 -2 -83 -8 -100 -15 l-31
-13 137 -175 c75 -96 143 -190 151 -209 20 -46 9 -84 -37 -124 -45 -42 -71
-51 -115 -43 -40 8 -60 30 -218 234 -65 83 -122 152 -126 152 -16 0 -64 -124
-71 -182 -14 -121 24 -248 102 -342 68 -82 195 -143 306 -148 42 -2 57 -8 76
-28 13 -14 190 -239 393 -500 236 -302 383 -482 404 -495 25 -14 52 -20 99
-20 77 1 131 25 188 85 28 31 45 40 69 40 37 0 73 -32 73 -65 0 -18 -15 -24
-156 -55 -211 -46 -246 -71 -246 -169 1 -78 39 -134 102 -151 30 -8 69 -3 206
24 100 20 170 30 173 25 1 -6 8 -3 15 7 11 15 16 15 62 -1 56 -19 106 -15 164
15 191 97 118 390 -97 390 -68 0 -110 -18 -156 -65 -21 -21 -39 -36 -41 -34
-9 11 -27 134 -19 136 39 14 233 147 251 173 31 46 29 98 -7 170 -27 54 -29
65 -24 132 5 62 2 80 -15 114 -28 55 -84 102 -137 116 -49 13 -28 -17 -251
358 l-33 55 56 6 c107 13 183 98 183 207 0 66 -20 111 -70 156 -66 60 -143 70
-227 32 -47 -22 -53 -23 -57 -8 -17 56 -97 455 -92 459 3 4 23 1 45 -5 123
-37 239 18 277 131 41 124 -44 255 -177 273 -58 7 -123 -17 -171 -63 -21 -20
-40 -35 -42 -32 -2 2 -25 103 -51 224 -26 121 -50 237 -55 258 l-8 38 31 -7
c96 -21 185 13 235 88 23 36 27 52 27 114 0 64 -3 77 -30 116 -51 71 -144 109
-221 89z m164 -1477 c40 -187 49 -250 41 -260 -6 -8 -15 -14 -19 -14 -12 0
-100 115 -178 232 -126 190 -152 233 -143 236 14 5 225 50 237 51 6 1 33 -105
62 -245z m117 -1590 c17 -31 40 -70 52 -86 29 -40 15 -70 -44 -99 -39 -19 -50
-20 -83 -10 -44 13 -85 57 -95 100 -10 45 24 113 66 134 57 28 71 23 104 -39z"/>
<path d="M3155 3617 c-412 -90 -764 -170 -781 -179 -108 -59 -67 -280 57 -303
46 -8 1573 317 1608 343 48 35 63 66 62 125 0 65 -18 113 -55 146 -51 48 -76
44 -891 -132z"/>
<path d="M3070 2861 c-305 -65 -505 -113 -522 -124 -14 -10 -34 -35 -44 -55
-15 -32 -16 -46 -6 -100 6 -35 18 -74 26 -87 21 -33 69 -56 114 -57 44 0 969
195 1029 218 61 22 88 64 87 135 -1 105 -63 180 -148 178 -23 0 -264 -49 -536
-108z"/>
<path d="M3385 2176 c-341 -73 -630 -136 -642 -140 -12 -4 -36 -23 -52 -42
-25 -28 -31 -43 -31 -83 0 -132 76 -204 192 -182 279 52 1248 265 1271 279 46
26 69 77 63 135 -11 99 -60 157 -137 163 -29 2 -251 -41 -664 -130z"/>
</g>
</svg>
